<mxfile host="Electron" agent="Mozilla/5.0 (Windows NT 10.0; Win64; x64) AppleWebKit/537.36 (KHTML, like Gecko) draw.io/24.7.17 Chrome/128.0.6613.36 Electron/32.0.1 Safari/537.36" version="24.7.17">
  <diagram name="Page-1" id="cZbot5YHhy3ihLenk1QR">
    <mxGraphModel dx="1434" dy="844" grid="1" gridSize="10" guides="1" tooltips="1" connect="1" arrows="1" fold="1" page="1" pageScale="1" pageWidth="850" pageHeight="1100" math="0" shadow="0">
      <root>
        <mxCell id="0" />
        <mxCell id="1" parent="0" />
        <mxCell id="NvEaaiBdIXYQWw_dskpo-6" style="edgeStyle=orthogonalEdgeStyle;rounded=0;orthogonalLoop=1;jettySize=auto;html=1;exitX=0.5;exitY=1;exitDx=0;exitDy=0;entryX=0.5;entryY=0;entryDx=0;entryDy=0;" edge="1" parent="1" source="NvEaaiBdIXYQWw_dskpo-1" target="NvEaaiBdIXYQWw_dskpo-2">
          <mxGeometry relative="1" as="geometry" />
        </mxCell>
        <mxCell id="NvEaaiBdIXYQWw_dskpo-1" value="Bắt đầu thêm cạnh" style="rounded=1;whiteSpace=wrap;html=1;" vertex="1" parent="1">
          <mxGeometry x="365" y="20" width="120" height="60" as="geometry" />
        </mxCell>
        <mxCell id="NvEaaiBdIXYQWw_dskpo-7" style="edgeStyle=orthogonalEdgeStyle;rounded=0;orthogonalLoop=1;jettySize=auto;html=1;exitX=0.5;exitY=1;exitDx=0;exitDy=0;entryX=0.5;entryY=0;entryDx=0;entryDy=0;" edge="1" parent="1" source="NvEaaiBdIXYQWw_dskpo-2" target="NvEaaiBdIXYQWw_dskpo-3">
          <mxGeometry relative="1" as="geometry" />
        </mxCell>
        <mxCell id="NvEaaiBdIXYQWw_dskpo-2" value="Vòng lặp chạy từ 0 đến số đỉnh" style="rounded=0;whiteSpace=wrap;html=1;" vertex="1" parent="1">
          <mxGeometry x="365" y="140" width="120" height="60" as="geometry" />
        </mxCell>
        <mxCell id="NvEaaiBdIXYQWw_dskpo-8" style="edgeStyle=orthogonalEdgeStyle;rounded=0;orthogonalLoop=1;jettySize=auto;html=1;exitX=0.5;exitY=1;exitDx=0;exitDy=0;entryX=0.5;entryY=0;entryDx=0;entryDy=0;" edge="1" parent="1" source="NvEaaiBdIXYQWw_dskpo-3" target="NvEaaiBdIXYQWw_dskpo-4">
          <mxGeometry relative="1" as="geometry" />
        </mxCell>
        <mxCell id="NvEaaiBdIXYQWw_dskpo-3" value="Cho 2 biến A, B là 2 số ngẫu nhiên khác nhau" style="rounded=0;whiteSpace=wrap;html=1;" vertex="1" parent="1">
          <mxGeometry x="365" y="260" width="120" height="60" as="geometry" />
        </mxCell>
        <mxCell id="NvEaaiBdIXYQWw_dskpo-9" style="edgeStyle=orthogonalEdgeStyle;rounded=0;orthogonalLoop=1;jettySize=auto;html=1;exitX=0.5;exitY=1;exitDx=0;exitDy=0;entryX=0.5;entryY=0;entryDx=0;entryDy=0;" edge="1" parent="1" source="NvEaaiBdIXYQWw_dskpo-4" target="NvEaaiBdIXYQWw_dskpo-5">
          <mxGeometry relative="1" as="geometry" />
        </mxCell>
        <mxCell id="NvEaaiBdIXYQWw_dskpo-10" style="edgeStyle=orthogonalEdgeStyle;rounded=0;orthogonalLoop=1;jettySize=auto;html=1;exitX=0;exitY=0.5;exitDx=0;exitDy=0;entryX=0;entryY=0.5;entryDx=0;entryDy=0;" edge="1" parent="1" source="NvEaaiBdIXYQWw_dskpo-4" target="NvEaaiBdIXYQWw_dskpo-3">
          <mxGeometry relative="1" as="geometry">
            <Array as="points">
              <mxPoint x="330" y="440" />
              <mxPoint x="330" y="290" />
            </Array>
          </mxGeometry>
        </mxCell>
        <mxCell id="NvEaaiBdIXYQWw_dskpo-4" value="Nếu cạnh A,B&amp;nbsp;&lt;div&gt;chưa tồn tại trong mảng&lt;/div&gt;" style="rhombus;whiteSpace=wrap;html=1;" vertex="1" parent="1">
          <mxGeometry x="365" y="380" width="120" height="120" as="geometry" />
        </mxCell>
        <mxCell id="NvEaaiBdIXYQWw_dskpo-5" value="Thêm 2 cạnh A, B đó vào mảng cacCanh" style="rounded=0;whiteSpace=wrap;html=1;" vertex="1" parent="1">
          <mxGeometry x="365" y="560" width="120" height="60" as="geometry" />
        </mxCell>
        <mxCell id="NvEaaiBdIXYQWw_dskpo-11" value="Đúng" style="text;html=1;align=center;verticalAlign=middle;resizable=0;points=[];autosize=1;strokeColor=none;fillColor=none;" vertex="1" parent="1">
          <mxGeometry x="375" y="499" width="50" height="30" as="geometry" />
        </mxCell>
        <mxCell id="NvEaaiBdIXYQWw_dskpo-12" value="Sai" style="text;html=1;align=center;verticalAlign=middle;resizable=0;points=[];autosize=1;strokeColor=none;fillColor=none;" vertex="1" parent="1">
          <mxGeometry x="331" y="410" width="40" height="30" as="geometry" />
        </mxCell>
      </root>
    </mxGraphModel>
  </diagram>
</mxfile>
